<svg xmlns="http://www.w3.org/2000/svg" xmlns:xlink="http://www.w3.org/1999/xlink"><symbol id="beach" viewBox="0 0 511.999 511.999"><path d="M193.985 344.45v-87.88h117.88v-15c0-73.27-59.61-132.88-132.88-132.88S46.105 168.3 46.105 241.57v15h117.88v87.88H0v104.874h15c16.555 0 24.023 3.719 33.479 8.427 10.894 5.424 23.241 11.573 46.852 11.573 23.611 0 35.958-6.148 46.852-11.573 9.456-4.708 16.925-8.427 33.479-8.427s24.023 3.719 33.48 8.427c10.893 5.424 23.241 11.573 46.852 11.573s35.958-6.148 46.852-11.573c9.456-4.708 16.926-8.427 33.48-8.427 16.557 0 24.026 3.719 33.483 8.428 10.895 5.424 23.242 11.572 46.853 11.572 23.612 0 35.96-6.148 46.855-11.573 9.457-4.708 16.927-8.427 33.482-8.427h15V344.45H193.985zm86.789-117.88h-44.691c-1.204-27.555-5.697-53.213-12.977-73.435a147.3 147.3 0 0 0-2.089-5.442c31.458 14.14 54.586 43.622 59.757 78.877zm-145.911-73.435c-7.28 20.222-11.773 45.88-12.977 73.435H77.195c5.171-35.254 28.299-64.736 59.757-78.877a147.991 147.991 0 0 0-2.089 5.442zm17.036 73.434c1.139-24.046 5.014-46.111 11.192-63.273 6.759-18.775 14.016-24.607 15.894-24.607 1.878 0 9.135 5.832 15.894 24.607 6.178 17.161 10.052 39.229 11.191 63.273h-54.171zM482 420.27c-14.37 1.928-23.538 6.486-31.853 10.626-9.457 4.709-16.927 8.428-33.483 8.428-16.556 0-24.025-3.719-33.482-8.427-10.895-5.424-23.242-11.573-46.854-11.573-23.611 0-35.958 6.148-46.852 11.573-9.456 4.708-16.926 8.427-33.481 8.427-16.555 0-24.023-3.719-33.479-8.427-10.894-5.424-23.241-11.573-46.852-11.573s-35.958 6.148-46.852 11.573c-9.456 4.708-16.925 8.427-33.48 8.427-16.555 0-24.023-3.719-33.479-8.427-8.314-4.14-17.482-8.699-31.852-10.627v-45.82h133.985v18.007h30V374.45H482v45.82zM381.739 42.676c-39.471 0-71.583 32.112-71.583 71.583s32.113 71.582 71.583 71.582c39.471 0 71.582-32.112 71.582-71.582 0-39.471-32.111-71.583-71.582-71.583zm0 113.165c-22.929 0-41.583-18.654-41.583-41.582s18.654-41.583 41.583-41.583 41.582 18.654 41.582 41.583-18.653 41.582-41.582 41.582z"/></symbol><symbol id="bus" viewBox="0 0 512 512"><path d="M301 346.338h-90c-8.284 0-15 6.722-15 15.015 0 8.292 6.716 15.015 15 15.015h90c8.284 0 15-6.722 15-15.015 0-8.292-6.716-15.015-15-15.015z"/><path d="M507.606 90.482l-25-25.024A14.991 14.991 0 0 0 472 61.06h-19.135C450.79 27.042 422.497 0 388 0H124C89.503 0 61.21 27.042 59.135 61.06H40a14.987 14.987 0 0 0-10.606 4.398l-25 25.024A15.02 15.02 0 0 0 0 101.099v75.073c0 8.292 6.716 15.015 15 15.015s15-6.722 15-15.015v-68.854l16.213-16.229H59v335.327c0 10.998 7.128 20.355 17 23.703v36.856C76 500.774 87.215 512 101 512h47c13.785 0 25-11.226 25-25.024v-35.535h166v35.535C339 500.774 350.215 512 364 512h47c13.785 0 25-11.226 25-25.024V450.12c9.872-3.348 17-12.704 17-23.703V91.089h12.787L482 107.318v68.854c0 8.292 6.716 15.015 15 15.015s15-6.722 15-15.015v-75.073a15.02 15.02 0 0 0-4.394-10.617zM423 421.412h-56.467l5.992-18.792L423 393.862zm-246.042 0l-11.668-36.596a15.005 15.005 0 0 0-11.729-10.229L89 363.384v-60.399c63.4 11.096 270.718 11.076 334 0v60.399l-64.562 11.202a15.007 15.007 0 0 0-11.729 10.229l-11.668 36.596H176.958zm-87.958 0v-27.55l50.476 8.758 5.992 18.792zm35-391.383h264c19.299 0 35 15.716 35 35.034v207.392c-52.91 11.756-281.123 11.749-334 0V65.064c0-19.319 15.701-35.035 35-35.035zm-18 451.942v-30.53h37v30.53zm263 0v-30.53h37v30.53z"/></symbol><symbol id="cube" viewBox="-34 0 512 512"><path d="M221.703 0L0 128v256l221.703 128 221.703-128V128zM398.22 136.652L221.703 238.566 45.187 136.652l176.516-101.91zM30.086 162.68L206.66 264.62v203.953L30.086 366.63zm206.66 305.894V264.621L413.32 162.68v203.949zm0 0"/></symbol><symbol id="domain" viewBox="0 0 128 128"><path d="M114.99 94.126a1.714 1.714 0 0 0 .315-.547 59.033 59.033 0 0 0 0-59.158 1.714 1.714 0 0 0-.315-.547A59.5 59.5 0 0 0 80.464 7.1 1.727 1.727 0 0 0 80 6.963a58.941 58.941 0 0 0-32 0 1.76 1.76 0 0 0-.458.13A59.493 59.493 0 0 0 13.01 33.874a1.714 1.714 0 0 0-.315.547 59.033 59.033 0 0 0 0 59.158 1.714 1.714 0 0 0 .315.547 59.494 59.494 0 0 0 34.5 26.772 1.763 1.763 0 0 0 .481.137 58.944 58.944 0 0 0 32.01 0 1.747 1.747 0 0 0 .505-.143 59.5 59.5 0 0 0 34.484-26.766zm-49.24 25.58V94.75h23.913c-2.6 9.51-6.341 17.412-10.891 23a55.542 55.542 0 0 1-13.022 1.956zm-16.522-1.958c-4.55-5.586-8.291-13.487-10.891-23H62.25v24.956a55.542 55.542 0 0 1-13.022-1.956zm-40.934-52H16V79.5a1.751 1.751 0 0 0 1.75 1.75h14.315c.464 3.423 1.066 6.77 1.8 10H15.39a55.363 55.363 0 0 1-7.096-25.5zm7.1-29h18.472a114.105 114.105 0 0 0-1.8 10H17.75A1.751 1.751 0 0 0 16 48.5v13.75H8.294a55.363 55.363 0 0 1 7.096-25.5zM62.25 8.294V33.25H38.337c2.6-9.51 6.341-17.412 10.891-23A55.542 55.542 0 0 1 62.25 8.294zm16.522 1.958c4.55 5.586 8.291 13.487 10.891 23H65.75V8.294a55.542 55.542 0 0 1 13.022 1.958zm40.934 52H112V48.5a1.751 1.751 0 0 0-1.75-1.75H95.935a114.785 114.785 0 0 0-1.8-10h18.475a55.363 55.363 0 0 1 7.096 25.5zm-7.1 29H94.134c.735-3.23 1.337-6.578 1.8-10h14.316A1.751 1.751 0 0 0 112 79.5V65.75h7.706a55.363 55.363 0 0 1-7.096 25.5zm-46.86 0v-10H92.4a108.96 108.96 0 0 1-1.862 10zM19.5 77.75v-27.5h89v27.5zm72.9-31H65.75v-10h24.791a109.24 109.24 0 0 1 1.859 10zm-30.153-10v10H35.6a108.96 108.96 0 0 1 1.862-10zM35.6 81.25h26.65v10H37.459a109.303 109.303 0 0 1-1.859-10zm48.856 34.6a74.1 74.1 0 0 0 8.83-21.1h17.189a56.049 56.049 0 0 1-26.022 21.096zm26.019-82.6H93.283a74.164 74.164 0 0 0-8.83-21.1 56.058 56.058 0 0 1 26.019 21.1zM43.55 12.15a74.148 74.148 0 0 0-8.83 21.1H17.528a56.051 56.051 0 0 1 26.019-21.097zm-26.022 82.6h17.189a74.116 74.116 0 0 0 8.829 21.1 56.058 56.058 0 0 1-26.018-21.1z"/><path d="M45.789 67.188l-3.478-10.563h-2.92l-3.499 10.563-3.156-10.563h-2.942l4.681 14.75h2.662l3.714-10.949 3.693 10.949h2.684l4.658-14.75h-2.941zm21.915 4.187h2.683l4.659-14.75h-2.942l-3.155 10.563-3.478-10.563h-2.92l-3.5 10.563-3.155-10.563h-2.942l4.68 14.75h2.663l3.714-10.949zm15.753 0l3.713-10.949 3.693 10.949h2.684l4.659-14.75h-2.942l-3.156 10.563-3.478-10.563h-2.92l-3.499 10.563-3.156-10.563h-2.941l4.68 14.75z"/></symbol><symbol id="draws" viewBox="0 0 512 512"><path d="M502.737 0H9.265A9.264 9.264 0 0 0 .001 9.264v139.175a9.264 9.264 0 0 0 18.528 0v-47.865l50.242 50.242-50.242 50.242v-22.355a9.264 9.264 0 0 0-18.528 0v324.034a9.264 9.264 0 0 0 9.264 9.264h493.471a9.264 9.264 0 0 0 9.264-9.264V9.264C512.001 4.148 507.853 0 502.737 0zm-24.136 18.528L430.128 67 381.65 18.528h96.951zm-139.656 0L290.474 67l-48.483-48.472h96.954zm-33.903 89.249c3.618 3.618 9.484 3.618 13.1 0a9.263 9.263 0 0 0 0-13.101l-14.57-14.57 56.723-56.723 127.44 127.433-56.727 56.727-91.869-91.869c-3.618-3.618-9.484-3.618-13.1 0a9.263 9.263 0 0 0 0 13.101l22.042 22.042-56.725 56.727L163.919 80.106l56.723-56.723 84.4 84.394zm-26.787 112.867L150.817 348.082l-56.725-56.725 127.437-127.438 56.726 56.725zM199.293 18.528L150.821 67l-48.48-48.472h96.952zm-180.764 0h41.11l-41.11 41.11v-41.11zm5.74 61.573l56.719-56.719 127.439 127.434-56.727 56.726L24.269 80.101zm-5.74 147.151c.021-.02.043-.037.063-.057l63.28-63.279 56.723 56.728L18.529 340.716V227.252zm0 154.4l50.245 50.245-50.245 50.234V381.652zm14.863 111.82l48.485-48.474 48.474 48.474H33.392zm-9.123-132.285l56.723-56.729 127.435 127.435-56.727 56.726L24.269 361.187zm148.783 132.285l48.477-48.477 48.477 48.477h-96.954zm-9.134-132.29l56.727-56.725 127.437 127.437-56.725 56.727-127.439-127.439zm148.788 132.29l48.477-48.477 48.477 48.477h-96.954zm-9.133-132.29l18.82-18.819a9.263 9.263 0 0 0 0-13.101c-3.618-3.618-9.484-3.618-13.101 0l-18.82 18.82-56.727-56.727 127.437-127.437 56.727 56.727-90.089 90.089a9.263 9.263 0 0 0 0 13.101c3.618 3.618 9.484 3.618 13.101 0l19.378-19.378 127.435 127.439-56.724 56.724-127.437-127.438zm189.898 132.29H452.36l41.111-41.111v41.111zm0-82.046l-50.241-50.24 50.241-50.253v100.493zm-.074-126.622l-63.267 63.282-56.73-56.729 120.071-120.072v113.452h.001c-.024.022-.05.043-.075.067zm.076-154.461l-50.242-50.242 50.242-50.242v100.484z"/></symbol><symbol id="intercom" viewBox="0 0 512 512"><path d="M478.208 0H33.792C15.14.019.023 15.132 0 33.783v444.425C.023 496.861 15.139 511.977 33.792 512h444.416c18.653-.023 33.768-15.139 33.792-33.792V33.783C511.977 15.132 496.86.019 478.208 0zm16.725 478.208c-.014 9.231-7.494 16.711-16.725 16.725H33.792c-9.231-.014-16.711-7.494-16.725-16.725V33.783c.014-9.23 7.495-16.707 16.725-16.717h444.416c9.23.009 16.711 7.487 16.725 16.717v444.425z"/><path d="M454.827 34.133H57.344c-12.813.014-23.197 10.398-23.211 23.211v397.312c.014 12.813 10.398 23.197 23.211 23.211h397.312c12.813-.014 23.197-10.398 23.211-23.211V57.173a23.04 23.04 0 0 0-23.04-23.04zm5.973 420.523a6.153 6.153 0 0 1-6.144 6.144H57.344a6.153 6.153 0 0 1-6.144-6.144V57.344a6.153 6.153 0 0 1 6.144-6.144h397.483a5.973 5.973 0 0 1 5.973 5.973v397.483z"/><path d="M204.8 196.267h102.4c4.713 0 8.533-3.82 8.533-8.533s-3.82-8.533-8.533-8.533H204.8c-4.713 0-8.533 3.82-8.533 8.533s3.82 8.533 8.533 8.533zM187.733 230.4h136.533c4.713 0 8.533-3.82 8.533-8.533s-3.82-8.533-8.533-8.533H187.733a8.533 8.533 0 0 0 0 17.066zM332.8 247.467H179.2c-4.713 0-8.533 3.82-8.533 8.533s3.82 8.533 8.533 8.533h153.6c4.713 0 8.533-3.82 8.533-8.533s-3.82-8.533-8.533-8.533zm-8.533 34.133H187.733c-4.713 0-8.533 3.82-8.533 8.533s3.82 8.533 8.533 8.533h136.533c4.713 0 8.533-3.82 8.533-8.533s-3.82-8.533-8.532-8.533zM307.2 315.733H204.8c-4.713 0-8.533 3.82-8.533 8.533s3.82 8.533 8.533 8.533h102.4c4.713 0 8.533-3.82 8.533-8.533s-3.82-8.533-8.533-8.533zM409.6 76.8c-14.138 0-25.6 11.462-25.6 25.6s11.462 25.6 25.6 25.6 25.6-11.461 25.6-25.6-11.461-25.6-25.6-25.6zm0 34.133c-4.713 0-8.533-3.82-8.533-8.533s3.82-8.533 8.533-8.533 8.533 3.82 8.533 8.533-3.82 8.533-8.533 8.533z"/></symbol><symbol id="key" viewBox="0 0 512 512"><path d="M512 178.802c0-72.396-63.649-128.561-136.055-118.866C348.548 23.563 305.011 0 256.071 0h-1.046C178.406 0 115.03 57.746 106.109 132H15c-8.284 0-15 6.716-15 15v350c0 8.284 6.716 15 15 15h209.95c8.284 0 15-6.716 15-15V147c0-8.284-6.716-15-15-15h-88.575c14.953-98.98 139.501-137.412 207.88-63.293C253.97 107.733 246.633 233.455 332 282.749v78.741c0 3.979 1.581 7.794 4.394 10.606l13.18 13.181-10.606 10.606c-5.858 5.857-5.858 15.355 0 21.213l10.606 10.606-13.436 13.436c-5.853 5.854-5.857 15.356 0 21.213l45.255 45.255c5.858 5.859 15.355 5.858 21.213 0l45-45A14.992 14.992 0 0 0 452 452V282.749c35.433-20.463 60-58.942 60-103.947zM30 482V271h179.95v211zm179.95-241H30v-79h75.025v33c0 8.284 6.716 15 15 15s15-6.716 15-15v-33h74.925zm203.369-40.949c-11.716 11.714-30.78 11.716-42.498 0-13.635-13.635-11.111-36.665 5.586-46.901 1.448 6.771 7.46 11.85 14.663 11.85 7.564 0 13.803-5.604 14.834-12.883 18.048 9.381 21.773 33.576 7.415 47.934zm17.254 60.091A15 15 0 0 0 422 273.695v172.093l-30 30-24.042-24.042 13.436-13.436c5.857-5.857 5.857-15.355 0-21.213l-10.606-10.606 10.606-10.606c5.858-5.857 5.858-15.355 0-21.213L362 355.277v-81.583a15 15 0 0 0-8.573-13.553C323.469 245.933 302 215.248 302 178.802c0-39.832 25.615-72.805 60.129-84.889a119.163 119.163 0 0 1 10.619 28.017c-41.718 14.134-54.712 67.761-23.138 99.333 23.41 23.411 61.51 23.415 84.923 0 34.293-34.291 15.605-92.882-31.526-101.509a148.734 148.734 0 0 0-9.969-30.885c79.95.914 118.433 97.742 62.602 153.572-7.336 7.335-15.769 13.29-25.067 17.701z"/></symbol><symbol id="kitchen" viewBox="0 0 512 512"><path d="M74 409.835c-16.542 0-30 13.458-30 30s13.458 30 30 30 30-13.458 30-30-13.458-30-30-30zm0 40c-5.514 0-10-4.486-10-10s4.486-10 10-10 10 4.486 10 10-4.486 10-10 10zm81-40c-16.542 0-30 13.458-30 30s13.458 30 30 30 30-13.458 30-30-13.458-30-30-30zm0 40c-5.514 0-10-4.486-10-10s4.486-10 10-10 10 4.486 10 10-4.486 10-10 10zm81.5-40c-16.542 0-30 13.458-30 30s13.458 30 30 30 30-13.458 30-30-13.458-30-30-30zm0 40c-5.514 0-10-4.486-10-10s4.486-10 10-10 10 4.486 10 10-4.486 10-10 10zm81-40c-16.542 0-30 13.458-30 30s13.458 30 30 30 30-13.458 30-30-13.458-30-30-30zm0 40c-5.514 0-10-4.486-10-10s4.486-10 10-10 10 4.486 10 10-4.486 10-10 10z"/><path d="M477 0H35C15.701 0 0 15.701 0 35v442c0 19.299 15.701 35 35 35h442c19.299 0 35-15.701 35-35V35c0-19.299-15.701-35-35-35zm15 477c0 8.271-6.729 15-15 15H35c-8.271 0-15-6.729-15-15v-87.165h472V477zm0-107.165H20V35c0-8.271 6.729-15 15-15h442c8.271 0 15 6.729 15 15v334.835z"/><path d="M145.5 206c-39.425 0-71.5 32.075-71.5 71.5s32.075 71.5 71.5 71.5 71.5-32.075 71.5-71.5-32.075-71.5-71.5-71.5zm0 123c-28.397 0-51.5-23.103-51.5-51.5s23.103-51.5 51.5-51.5 51.5 23.103 51.5 51.5-23.103 51.5-51.5 51.5zm0-286.597c-39.425 0-71.5 32.075-71.5 71.5s32.075 71.5 71.5 71.5 71.5-32.075 71.5-71.5-32.075-71.5-71.5-71.5zm0 123c-28.397 0-51.5-23.103-51.5-51.5s23.103-51.5 51.5-51.5 51.5 23.103 51.5 51.5-23.103 51.5-51.5 51.5zM366.5 206c-39.425 0-71.5 32.075-71.5 71.5s32.075 71.5 71.5 71.5 71.5-32.075 71.5-71.5-32.075-71.5-71.5-71.5zm0 123c-28.397 0-51.5-23.103-51.5-51.5s23.103-51.5 51.5-51.5 51.5 23.103 51.5 51.5-23.103 51.5-51.5 51.5zm0-286.597c-39.425 0-71.5 32.075-71.5 71.5s32.075 71.5 71.5 71.5 71.5-32.075 71.5-71.5-32.075-71.5-71.5-71.5zm0 123c-28.397 0-51.5-23.103-51.5-51.5s23.103-51.5 51.5-51.5 51.5 23.103 51.5 51.5-23.103 51.5-51.5 51.5z"/><path d="M145.5 247.5c-16.542 0-30 13.458-30 30s13.458 30 30 30 30-13.458 30-30-13.458-30-30-30zm0 40c-5.514 0-10-4.486-10-10s4.486-10 10-10 10 4.486 10 10-4.486 10-10 10zm221-40c-16.542 0-30 13.458-30 30s13.458 30 30 30 30-13.458 30-30-13.458-30-30-30zm0 40c-5.514 0-10-4.486-10-10s4.486-10 10-10 10 4.486 10 10-4.486 10-10 10zm0-202.335c-16.542 0-30 13.458-30 30s13.458 30 30 30 30-13.458 30-30-13.458-30-30-30zm0 40c-5.514 0-10-4.486-10-10s4.486-10 10-10 10 4.486 10 10-4.486 10-10 10zm-221-40c-16.542 0-30 13.458-30 30s13.458 30 30 30 30-13.458 30-30-13.458-30-30-30zm0 40c-5.514 0-10-4.486-10-10s4.486-10 10-10 10 4.486 10 10-4.486 10-10 10z"/><circle cx="456" cy="419.84" r="10"/><circle cx="456" cy="459.84" r="10"/></symbol><symbol id="left-arrow" viewBox="0 0 64 64"><path d="M54 30H14.101l15.278-14.552a2 2 0 1 0-2.759-2.897L9.172 29.171A3.978 3.978 0 0 0 8 32c0 1.068.417 2.073 1.207 2.862l17.414 16.586c.387.369.883.552 1.379.552a1.999 1.999 0 0 0 1.38-3.448L14.038 34H54a2 2 0 0 0 0-4z"/></symbol><symbol id="plans" viewBox="0 0 512.001 512.001"><path d="M503.28 44.897a8.721 8.721 0 0 0 8.721-8.721V8.721A8.72 8.72 0 0 0 503.28 0H108.633a8.722 8.722 0 0 0-8.721 8.721v394.645a8.722 8.722 0 0 0 8.721 8.721h394.645a8.721 8.721 0 0 0 8.721-8.721V65.245a8.721 8.721 0 1 0-17.442 0v149.416h-34.634a8.721 8.721 0 1 0 0 17.442h34.634v162.543H245.393v-42.197a8.722 8.722 0 0 0-17.442 0v42.197H117.354V17.442h110.598V289.66a8.722 8.722 0 0 0 17.442 0v-57.557h155.229a8.721 8.721 0 1 0 0-17.442h-155.23V17.442h249.166v18.734a8.72 8.72 0 0 0 8.721 8.721zM73.679 50.331L44.902 4.112a8.723 8.723 0 0 0-14.806 0L1.318 50.331a8.72 8.72 0 0 0 7.403 13.33h20.057v36.468a8.722 8.722 0 0 0 17.442 0V63.661h20.057a8.72 8.72 0 0 0 7.402-13.33zm-49.255-4.112l13.074-20.998 13.074 20.998H24.424zM73.9 352.914a8.721 8.721 0 0 0-7.624-4.486H46.219V123.384a8.722 8.722 0 0 0-17.442 0v225.043H8.721a8.72 8.72 0 0 0-7.403 13.33l28.777 46.219a8.721 8.721 0 0 0 14.806 0l28.777-46.219a8.713 8.713 0 0 0 .222-8.843zm-36.401 33.954L24.424 365.87h26.148l-13.073 20.998zm470.39 80.231l-46.219-28.777a8.721 8.721 0 0 0-13.329 7.403v20.057H163.573v-20.057a8.721 8.721 0 0 0-13.33-7.403l-46.219 28.777a8.721 8.721 0 0 0 0 14.806l46.219 28.777a8.718 8.718 0 0 0 13.33-7.403v-20.057H448.34v20.057a8.725 8.725 0 0 0 4.486 7.624 8.722 8.722 0 0 0 8.844-.221l46.219-28.777a8.721 8.721 0 0 0 0-14.806zm-361.758 20.477l-20.998-13.074 20.998-13.074v26.148zm319.651 0v-26.148l21 13.074-21 13.074z"/></symbol><symbol id="plastering" viewBox="0 0 512 512"><path d="M486.4 0H25.6C11.468.015.015 11.468 0 25.6v460.8c.015 14.132 11.468 25.585 25.6 25.6h460.8c14.132-.015 25.585-11.468 25.6-25.6V25.6C511.985 11.468 500.532.015 486.4 0zm8.533 486.4a8.544 8.544 0 0 1-8.533 8.533H25.6a8.544 8.544 0 0 1-8.533-8.533V25.6a8.544 8.544 0 0 1 8.533-8.533h460.8a8.544 8.544 0 0 1 8.533 8.533v460.8z"/><path d="M469.333 34.133H42.667a8.533 8.533 0 0 0-8.533 8.533v426.667a8.533 8.533 0 0 0 8.533 8.533h426.667a8.533 8.533 0 0 0 8.533-8.533V42.667a8.534 8.534 0 0 0-8.534-8.534zM298.667 51.2h93.867v17.067h-93.867V51.2zm42.666 273.067H256v-34.133h85.333v34.133zm51.2 17.066v34.133h-76.638a358.23 358.23 0 0 1-57.486-34.133h134.124zm-201.387-68.266a8.498 8.498 0 0 0-3.339.683 356.811 356.811 0 0 1-24.22-34.816H281.6v34.133h-90.454zm47.787 17.066v36.145a359.985 359.985 0 0 1-37.198-36.145h37.198zm-68.266-153.6v34.133h-39.556a344.402 344.402 0 0 1-10.032-34.133h49.588zm-53.125-17.066c-2.141-11.366-3.932-22.774-5.006-34.133h23.998v34.133h-18.992zm121.391 0H153.6V85.333h85.333v34.134zm42.667 17.066v34.133h-93.867v-34.133H281.6zm-42.667 51.2v34.133h-84.821c-.129 0-.235.067-.362.073a354.645 354.645 0 0 1-16.141-34.206h101.324zm59.734 85.334v-34.133h93.867v34.133h-93.867zm42.666-51.2H256v-34.133h85.333v34.133zm-42.666-51.2v-34.133h93.867v34.133h-93.867zm42.666-51.2H256V85.333h85.333v34.134zM187.733 51.2H281.6v17.067h-93.867V51.2zm-17.066 0v17.067h-59.336a373.057 373.057 0 0 1-.397-17.067h59.733zM460.8 460.8H51.2V51.2h42.667c0 11.696.529 23.442 1.575 34.921a397.007 397.007 0 0 0 8.454 52.413c.092.396.214.784.362 1.162a363.795 363.795 0 0 0 16.237 51.358 376.568 376.568 0 0 0 25.858 52.504 368.691 368.691 0 0 0 37.796 52.546 378.527 378.527 0 0 0 55.117 52.5 373.906 373.906 0 0 0 221.533 77.867V460.8zm0-51.395a359.793 359.793 0 0 1-101.398-16.872H460.8v16.872zm0-33.938h-51.2v-34.133h51.2v34.133zm0-51.2H358.4v-34.133h102.4v34.133zm0-51.2h-51.2v-34.133h51.2v34.133zm0-51.2H358.4v-34.133h102.4v34.133zm0-51.2h-51.2v-34.133h51.2v34.133zm0-51.2H358.4V85.333h102.4v34.134zm0-51.2h-51.2V51.2h51.2v17.067z"/></symbol><symbol id="radiator" viewBox="0 0 512 512"><path d="M497 348.29V332h7.5c4.143 0 7.5-3.357 7.5-7.5s-3.357-7.5-7.5-7.5H497v-2.5c0-4.143-3.357-7.5-7.5-7.5s-7.5 3.357-7.5 7.5v2.5h-7.5c-4.143 0-7.5 3.357-7.5 7.5s3.357 7.5 7.5 7.5h7.5v16.29c-8.729 3.096-15 11.433-15 21.21v7.5h-15v-22.5c0-4.143-3.357-7.5-7.5-7.5H422V45h2.5c4.143 0 7.5-3.357 7.5-7.5s-3.357-7.5-7.5-7.5H422V7.5c0-4.143-3.357-7.5-7.5-7.5h-317A7.499 7.499 0 0 0 90 7.5V30h-2.5c-4.143 0-7.5 3.357-7.5 7.5s3.357 7.5 7.5 7.5H90v302H67.5a7.499 7.499 0 0 0-7.5 7.5V377H45v-7.5c0-12.406-10.094-22.5-22.5-22.5S0 357.094 0 369.5v75c0 4.143 3.357 7.5 7.5 7.5H15v52.5c0 4.143 3.357 7.5 7.5 7.5s7.5-3.357 7.5-7.5V452h7.5c4.143 0 7.5-3.357 7.5-7.5V392h15v22.5c0 4.143 3.357 7.5 7.5 7.5H90v22.5c0 4.143 3.357 7.5 7.5 7.5h317c4.143 0 7.5-3.357 7.5-7.5V422h22.5c4.143 0 7.5-3.357 7.5-7.5V392h15v52.5c0 4.143 3.357 7.5 7.5 7.5h7.5v52.5c0 4.143 3.357 7.5 7.5 7.5s7.5-3.357 7.5-7.5V452h7.5c4.143 0 7.5-3.357 7.5-7.5v-75c0-9.777-6.271-18.114-15-21.21zM30 437H15v-67.5c0-4.136 3.364-7.5 7.5-7.5s7.5 3.364 7.5 7.5V437zm60-30H75v-45h15v45zm158.5 30h-64.25V97.5c0-4.143-3.357-7.5-7.5-7.5s-7.5 3.357-7.5 7.5V437H105V15h64.25v52.5c0 4.143 3.357 7.5 7.5 7.5s7.5-3.357 7.5-7.5V15h64.25v422zm79.25 0H263.5V15h64.25v422zm79.25 0h-64.25V15H407v422zm30-30h-15v-45h15v45zm60 30h-15v-67.5c0-4.136 3.364-7.5 7.5-7.5s7.5 3.364 7.5 7.5V437z"/></symbol><symbol id="real-estate" viewBox="0 0 512 512"><path d="M471.149 32.681H272.34a8.169 8.169 0 0 0-8.17 8.17v364.935a8.169 8.169 0 0 0 8.17 8.17 8.169 8.169 0 0 0 8.17-8.17v-92.153c12.235-5.23 22.444-14.275 29.203-25.505 10.969 18.509 31.07 30.51 53.861 30.51 22.742 0 42.802-11.946 53.787-30.384 9.648 16.194 26.299 27.378 45.617 29.859v144.865H280.511v-24.511a8.169 8.169 0 0 0-8.17-8.17 8.169 8.169 0 0 0-8.17 8.17v32.681a8.169 8.169 0 0 0 8.17 8.17h198.808a8.169 8.169 0 0 0 8.17-8.17V40.851a8.169 8.169 0 0 0-8.17-8.17zm-8.17 268.904c-19.183-3.37-34.402-18.429-37.548-38.27a8.169 8.169 0 0 0-16.138 0c-3.581 22.588-22.809 38.983-45.718 38.983-22.909 0-42.138-16.395-45.718-38.983a8.169 8.169 0 0 0-16.138-.001c-2.102 13.262-10.049 24.89-21.208 31.911V49.021h182.468v252.564z"/><path d="M503.83 0H8.17A8.17 8.17 0 0 0 0 8.17v495.66A8.17 8.17 0 0 0 8.17 512h495.66a8.169 8.169 0 0 0 8.17-8.17V8.17A8.169 8.169 0 0 0 503.83 0zm-8.17 495.66H16.34V16.34h479.32v479.32z"/><path d="M239.66 32.681H40.851a8.17 8.17 0 0 0-8.17 8.17v430.298a8.17 8.17 0 0 0 8.17 8.17H239.66a8.17 8.17 0 0 0 8.17-8.17V40.851a8.17 8.17 0 0 0-8.17-8.17zm-8.171 430.298H49.021V318.114c19.318-2.482 35.969-13.665 45.617-29.859 10.985 18.439 31.046 30.384 53.787 30.384 22.793 0 42.893-12 53.861-30.51 6.758 11.23 16.968 20.274 29.203 25.505v149.345zm0-167.754c-11.158-7.021-19.105-18.65-21.207-31.91a8.17 8.17 0 0 0-16.14 0c-3.581 22.588-22.807 38.983-45.717 38.983s-42.136-16.395-45.717-38.983a8.17 8.17 0 0 0-16.14 0c-3.145 19.842-18.365 34.9-37.547 38.27V49.021h182.468v246.204z"/></symbol><symbol id="right-arrow" viewBox="0 0 64 64"><path d="M37.379 12.552a2 2 0 1 0-2.758 2.897L49.963 30H10a2 2 0 0 0 0 4h39.899L34.621 48.552a2 2 0 1 0 2.758 2.896l17.449-16.62C55.584 34.073 56 33.069 56 32s-.416-2.073-1.207-2.862z"/></symbol><symbol id="shopping-bag" viewBox="0 0 512 512"><path d="M496 121h-75V90c0-49.626-40.374-90-90-90s-90 40.374-90 90v31h-75c-8.284 0-15 6.716-15 15v105H16c-8.284 0-15 6.716-15 15v241c0 8.284 6.716 15 15 15h480c8.284 0 15-6.716 15-15V136c0-8.284-6.716-15-15-15zM271 90c0-33.084 26.916-60 60-60s60 26.916 60 60v31H271zM31 271h240v211H31zm450 211H301V256c0-8.284-6.716-15-15-15H181v-90h60v45c0 8.284 6.716 15 15 15s15-6.716 15-15v-45h120v45c0 8.284 6.716 15 15 15s15-6.716 15-15v-45h60z"/><path d="M211 301c-8.284 0-15 6.716-15 15 0 24.813-20.187 45-45 45s-45-20.187-45-45c0-8.284-6.716-15-15-15s-15 6.716-15 15c0 41.355 33.645 75 75 75s75-33.645 75-75c0-8.284-6.716-15-15-15z"/></symbol><symbol id="triangular-ruler" viewBox="0 0 508.659 508.659"><path d="M503.954 481.344L27.313 4.704C17.255-5.357 0 1.799 0 16.017v476.641c0 8.837 7.164 16 16 16h476.641c14.204 0 21.386-17.241 11.313-27.314zM32 476.658V54.644l61.593 61.593-11.487 11.487c-6.249 6.248-6.249 16.379 0 22.627 6.249 6.249 16.378 6.248 22.627 0l11.487-11.487 46.423 46.423-11.487 11.488c-6.249 6.248-6.249 16.379 0 22.627 6.249 6.249 16.378 6.248 22.627 0l11.487-11.487 46.423 46.423-11.487 11.487c-6.249 6.248-6.249 16.379 0 22.627 6.249 6.249 16.378 6.248 22.627 0l11.487-11.487 46.423 46.423-11.487 11.487c-6.249 6.248-6.249 16.379 0 22.627 6.249 6.249 16.378 6.248 22.627 0l11.487-11.487 46.423 46.423-11.488 11.487c-6.249 6.248-6.249 16.379 0 22.627 6.246 6.247 16.378 6.25 22.627 0l11.488-11.487 61.593 61.593z"/><path d="M152.48 266.706c-18.779-18.782-50.995-5.461-50.995 21.122V377.3c0 16.472 13.4 29.873 29.872 29.873h89.473c26.562 0 39.919-32.2 21.123-50.995zm-18.995 108.467v-82.208l82.208 82.208z"/></symbol><symbol id="verified" viewBox="0 0 512 512"><path d="M437.019 74.98C388.667 26.629 324.38 0 256 0 187.619 0 123.331 26.629 74.98 74.98 26.628 123.332 0 187.62 0 256s26.628 132.667 74.98 181.019C123.332 485.371 187.619 512 256 512c68.38 0 132.667-26.629 181.019-74.981C485.371 388.667 512 324.38 512 256s-26.629-132.667-74.981-181.02zM256 482C131.383 482 30 380.617 30 256S131.383 30 256 30s226 101.383 226 226-101.383 226-226 226z"/><path d="M378.305 173.859c-5.857-5.856-15.355-5.856-21.212.001L224.634 306.319l-69.727-69.727c-5.857-5.857-15.355-5.857-21.213 0-5.858 5.857-5.858 15.355 0 21.213l80.333 80.333a14.953 14.953 0 0 0 10.606 4.393c3.838 0 7.678-1.465 10.606-4.393l143.066-143.066c5.858-5.857 5.858-15.355 0-21.213z"/></symbol><symbol id="window" viewBox="0 0 512 512"><path d="M234.717 60.141H107.418c-7.72 0-14.001 6.281-14.001 14.001V233.13c0 7.72 6.281 14.001 14.001 14.001h127.299c7.72 0 14.001-6.281 14.001-14.001V74.142c0-7.72-6.281-14.001-14.001-14.001zm-.572 172.416H107.99V74.714h126.155v157.843zm.572 31.082H107.418c-7.72 0-14.001 6.281-14.001 14.001v158.987c0 7.721 6.281 14.001 14.001 14.001h127.299c7.72 0 14.001-6.281 14.001-14.001V277.64c0-7.72-6.281-14.001-14.001-14.001zm-.572 172.417H107.99V278.213h126.155v157.843zM404.582 60.141H277.284c-7.721 0-14.002 6.281-14.002 14.001V233.13c0 7.72 6.281 14.001 14.002 14.001h127.298c7.721 0 14.002-6.281 14.002-14.001V74.142c-.001-7.72-6.281-14.001-14.002-14.001zm-.572 172.416H277.855V74.714H404.01v157.843zm.572 31.082H277.284c-7.721 0-14.002 6.281-14.002 14.001v158.987c0 7.721 6.281 14.001 14.002 14.001h127.298c7.721 0 14.002-6.281 14.002-14.001V277.64c-.001-7.72-6.281-14.001-14.002-14.001zm-.572 172.417H277.855V278.213H404.01v157.843z"/><path d="M493.522 459.598h-14.797v-349.51a7.287 7.287 0 1 0-14.574 0v349.51h-17.39V47.671c0-8.662-7.047-15.709-15.709-15.709H80.947c-8.662 0-15.709 7.047-15.709 15.709v411.927h-17.39v-71.842a7.287 7.287 0 1 0-14.574 0v71.842H18.478c-8.053 0-14.604 6.552-14.604 14.604v23.194c0 8.053 6.552 14.604 14.604 14.604h475.044c8.053 0 14.604-6.552 14.604-14.604v-23.194c0-8.053-6.551-14.604-14.604-14.604zM79.811 47.671c0-.626.509-1.136 1.136-1.136h350.106c.626 0 1.136.509 1.136 1.136v411.927H79.811V47.671zm413.725 449.755l-.014.001-475.075-.031.031-23.225 475.075.031-.017 23.224z"/><path d="M464.976 0H47.024c-7.581 0-13.749 6.167-13.749 13.749v339.416a7.287 7.287 0 0 0 14.574-.001V14.573h416.304v60.842a7.287 7.287 0 1 0 14.574 0V13.749C478.725 6.167 472.557 0 464.976 0z"/></symbol><symbol id="zoom-in" viewBox="0 0 512 512"><path d="M506.141 477.851L361.689 333.399c65.814-80.075 61.336-198.944-13.451-273.73-79.559-79.559-209.01-79.559-288.569 0s-79.559 209.01 0 288.569c74.766 74.766 193.62 79.293 273.73 13.451l144.452 144.452c7.812 7.812 20.477 7.812 28.289 0 7.813-7.813 7.813-20.478.001-28.29zM319.949 319.948c-63.96 63.96-168.03 63.959-231.99 0-63.96-63.96-63.96-168.03 0-231.99 63.958-63.957 168.028-63.962 231.99 0 63.96 63.96 63.96 168.03 0 231.99z"/><path d="M301.897 183.949h-77.94v-77.94c0-11.048-8.956-20.004-20.004-20.004-11.048 0-20.004 8.956-20.004 20.004v77.94h-77.94c-11.048 0-20.004 8.956-20.004 20.004 0 11.048 8.956 20.004 20.004 20.004h77.94v77.94c0 11.048 8.956 20.004 20.004 20.004 11.048 0 20.004-8.956 20.004-20.004v-77.94h77.94c11.048 0 20.004-8.956 20.004-20.004 0-11.048-8.956-20.004-20.004-20.004z"/></symbol></svg>