<svg xmlns="http://www.w3.org/2000/svg" viewBox="0 0 511.999 511.999"><path d="M193.985 344.45v-87.88h117.88v-15c0-73.27-59.61-132.88-132.88-132.88S46.105 168.3 46.105 241.57v15h117.88v87.88H0v104.874h15c16.555 0 24.023 3.719 33.479 8.427 10.894 5.424 23.241 11.573 46.852 11.573 23.611 0 35.958-6.148 46.852-11.573 9.456-4.708 16.925-8.427 33.479-8.427s24.023 3.719 33.48 8.427c10.893 5.424 23.241 11.573 46.852 11.573s35.958-6.148 46.852-11.573c9.456-4.708 16.926-8.427 33.48-8.427 16.557 0 24.026 3.719 33.483 8.428 10.895 5.424 23.242 11.572 46.853 11.572 23.612 0 35.96-6.148 46.855-11.573 9.457-4.708 16.927-8.427 33.482-8.427h15V344.45H193.985zm86.789-117.88h-44.691c-1.204-27.555-5.697-53.213-12.977-73.435a147.3 147.3 0 00-2.089-5.442c31.458 14.14 54.586 43.622 59.757 78.877zm-145.911-73.435c-7.28 20.222-11.773 45.88-12.977 73.435H77.195c5.171-35.254 28.299-64.736 59.757-78.877a147.991 147.991 0 00-2.089 5.442zm17.036 73.434c1.139-24.046 5.014-46.111 11.192-63.273 6.759-18.775 14.016-24.607 15.894-24.607 1.878 0 9.135 5.832 15.894 24.607 6.178 17.161 10.052 39.229 11.191 63.273h-54.171zM482 420.27c-14.37 1.928-23.538 6.486-31.853 10.626-9.457 4.709-16.927 8.428-33.483 8.428-16.556 0-24.025-3.719-33.482-8.427-10.895-5.424-23.242-11.573-46.854-11.573-23.611 0-35.958 6.148-46.852 11.573-9.456 4.708-16.926 8.427-33.481 8.427-16.555 0-24.023-3.719-33.479-8.427-10.894-5.424-23.241-11.573-46.852-11.573s-35.958 6.148-46.852 11.573c-9.456 4.708-16.925 8.427-33.48 8.427-16.555 0-24.023-3.719-33.479-8.427-8.314-4.14-17.482-8.699-31.852-10.627v-45.82h133.985v18.007h30V374.45H482v45.82zM381.739 42.676c-39.471 0-71.583 32.112-71.583 71.583s32.113 71.582 71.583 71.582c39.471 0 71.582-32.112 71.582-71.582 0-39.471-32.111-71.583-71.582-71.583zm0 113.165c-22.929 0-41.583-18.654-41.583-41.582s18.654-41.583 41.583-41.583 41.582 18.654 41.582 41.583-18.653 41.582-41.582 41.582z"/></svg>