<svg xmlns="http://www.w3.org/2000/svg" viewBox="0 0 512 512">
  <path d="M478.208 0H33.792C15.14.019.023 15.132 0 33.783v444.425C.023 496.861 15.139 511.977 33.792 512h444.416c18.653-.023 33.768-15.139 33.792-33.792V33.783C511.977 15.132 496.86.019 478.208 0zm16.725 478.208c-.014 9.231-7.494 16.711-16.725 16.725H33.792c-9.231-.014-16.711-7.494-16.725-16.725V33.783c.014-9.23 7.495-16.707 16.725-16.717h444.416c9.23.009 16.711 7.487 16.725 16.717v444.425z"/>
  <path d="M454.827 34.133H57.344c-12.813.014-23.197 10.398-23.211 23.211v397.312c.014 12.813 10.398 23.197 23.211 23.211h397.312c12.813-.014 23.197-10.398 23.211-23.211V57.173a23.04 23.04 0 00-23.04-23.04zm5.973 420.523a6.153 6.153 0 01-6.144 6.144H57.344a6.153 6.153 0 01-6.144-6.144V57.344a6.153 6.153 0 016.144-6.144h397.483a5.973 5.973 0 015.973 5.973v397.483z"/>
  <path d="M204.8 196.267h102.4c4.713 0 8.533-3.82 8.533-8.533s-3.82-8.533-8.533-8.533H204.8c-4.713 0-8.533 3.82-8.533 8.533s3.82 8.533 8.533 8.533zM187.733 230.4h136.533c4.713 0 8.533-3.82 8.533-8.533s-3.82-8.533-8.533-8.533H187.733a8.533 8.533 0 000 17.066zM332.8 247.467H179.2c-4.713 0-8.533 3.82-8.533 8.533s3.82 8.533 8.533 8.533h153.6c4.713 0 8.533-3.82 8.533-8.533s-3.82-8.533-8.533-8.533zM324.267 281.6H187.733c-4.713 0-8.533 3.82-8.533 8.533s3.82 8.533 8.533 8.533h136.533c4.713 0 8.533-3.82 8.533-8.533s-3.82-8.533-8.532-8.533zM307.2 315.733H204.8c-4.713 0-8.533 3.82-8.533 8.533s3.82 8.533 8.533 8.533h102.4c4.713 0 8.533-3.82 8.533-8.533s-3.82-8.533-8.533-8.533zM409.6 76.8c-14.138 0-25.6 11.462-25.6 25.6s11.462 25.6 25.6 25.6 25.6-11.461 25.6-25.6-11.461-25.6-25.6-25.6zm0 34.133c-4.713 0-8.533-3.82-8.533-8.533s3.82-8.533 8.533-8.533 8.533 3.82 8.533 8.533-3.82 8.533-8.533 8.533z"/>
</svg>
