<svg xmlns="http://www.w3.org/2000/svg" viewBox="0 0 512 512">
  <path d="M512 178.802c0-72.396-63.649-128.561-136.055-118.866C348.548 23.563 305.011 0 256.071 0h-1.046C178.406 0 115.03 57.746 106.109 132H15c-8.284 0-15 6.716-15 15v350c0 8.284 6.716 15 15 15h209.95c8.284 0 15-6.716 15-15V147c0-8.284-6.716-15-15-15h-88.575c14.953-98.98 139.501-137.412 207.88-63.293C253.97 107.733 246.633 233.455 332 282.749v78.741c0 3.979 1.581 7.794 4.394 10.606l13.18 13.181-10.606 10.606c-5.858 5.857-5.858 15.355 0 21.213l10.606 10.606-13.436 13.436c-5.853 5.854-5.857 15.356 0 21.213l45.255 45.255c5.858 5.859 15.355 5.858 21.213 0l45-45A14.992 14.992 0 00452 452V282.749c35.433-20.463 60-58.942 60-103.947zM30 482V271h179.95v211zm179.95-241H30v-79h75.025v33c0 8.284 6.716 15 15 15s15-6.716 15-15v-33h74.925zm203.369-40.949c-11.716 11.714-30.78 11.716-42.498 0-13.635-13.635-11.111-36.665 5.586-46.901 1.448 6.771 7.46 11.85 14.663 11.85 7.564 0 13.803-5.604 14.834-12.883 18.048 9.381 21.773 33.576 7.415 47.934zm17.254 60.091A15 15 0 00422 273.695v172.093l-30 30-24.042-24.042 13.436-13.436c5.857-5.857 5.857-15.355 0-21.213l-10.606-10.606 10.606-10.606c5.858-5.857 5.858-15.355 0-21.213L362 355.277v-81.583a15 15 0 00-8.573-13.553C323.469 245.933 302 215.248 302 178.802c0-39.832 25.615-72.805 60.129-84.889a119.163 119.163 0 0110.619 28.017c-41.718 14.134-54.712 67.761-23.138 99.333 23.41 23.411 61.51 23.415 84.923 0 34.293-34.291 15.605-92.882-31.526-101.509a148.734 148.734 0 00-9.969-30.885c79.95.914 118.433 97.742 62.602 153.572-7.336 7.335-15.769 13.29-25.067 17.701z"/>
</svg>
