<svg xmlns="http://www.w3.org/2000/svg" viewBox="0 0 512 512">
  <path d="M74 409.835c-16.542 0-30 13.458-30 30s13.458 30 30 30 30-13.458 30-30-13.458-30-30-30zm0 40c-5.514 0-10-4.486-10-10s4.486-10 10-10 10 4.486 10 10-4.486 10-10 10zM155 409.835c-16.542 0-30 13.458-30 30s13.458 30 30 30 30-13.458 30-30-13.458-30-30-30zm0 40c-5.514 0-10-4.486-10-10s4.486-10 10-10 10 4.486 10 10-4.486 10-10 10zM236.5 409.835c-16.542 0-30 13.458-30 30s13.458 30 30 30 30-13.458 30-30-13.458-30-30-30zm0 40c-5.514 0-10-4.486-10-10s4.486-10 10-10 10 4.486 10 10-4.486 10-10 10zM317.5 409.835c-16.542 0-30 13.458-30 30s13.458 30 30 30 30-13.458 30-30-13.458-30-30-30zm0 40c-5.514 0-10-4.486-10-10s4.486-10 10-10 10 4.486 10 10-4.486 10-10 10z"/>
  <path d="M477 0H35C15.701 0 0 15.701 0 35v442c0 19.299 15.701 35 35 35h442c19.299 0 35-15.701 35-35V35c0-19.299-15.701-35-35-35zm15 477c0 8.271-6.729 15-15 15H35c-8.271 0-15-6.729-15-15v-87.165h472V477zm0-107.165H20V35c0-8.271 6.729-15 15-15h442c8.271 0 15 6.729 15 15v334.835z"/>
  <path d="M145.5 206c-39.425 0-71.5 32.075-71.5 71.5s32.075 71.5 71.5 71.5 71.5-32.075 71.5-71.5-32.075-71.5-71.5-71.5zm0 123c-28.397 0-51.5-23.103-51.5-51.5s23.103-51.5 51.5-51.5 51.5 23.103 51.5 51.5-23.103 51.5-51.5 51.5zM145.5 42.403c-39.425 0-71.5 32.075-71.5 71.5s32.075 71.5 71.5 71.5 71.5-32.075 71.5-71.5-32.075-71.5-71.5-71.5zm0 123c-28.397 0-51.5-23.103-51.5-51.5s23.103-51.5 51.5-51.5 51.5 23.103 51.5 51.5-23.103 51.5-51.5 51.5zM366.5 206c-39.425 0-71.5 32.075-71.5 71.5s32.075 71.5 71.5 71.5 71.5-32.075 71.5-71.5-32.075-71.5-71.5-71.5zm0 123c-28.397 0-51.5-23.103-51.5-51.5s23.103-51.5 51.5-51.5 51.5 23.103 51.5 51.5-23.103 51.5-51.5 51.5zM366.5 42.403c-39.425 0-71.5 32.075-71.5 71.5s32.075 71.5 71.5 71.5 71.5-32.075 71.5-71.5-32.075-71.5-71.5-71.5zm0 123c-28.397 0-51.5-23.103-51.5-51.5s23.103-51.5 51.5-51.5 51.5 23.103 51.5 51.5-23.103 51.5-51.5 51.5z"/>
  <path d="M145.5 247.5c-16.542 0-30 13.458-30 30s13.458 30 30 30 30-13.458 30-30-13.458-30-30-30zm0 40c-5.514 0-10-4.486-10-10s4.486-10 10-10 10 4.486 10 10-4.486 10-10 10zM366.5 247.5c-16.542 0-30 13.458-30 30s13.458 30 30 30 30-13.458 30-30-13.458-30-30-30zm0 40c-5.514 0-10-4.486-10-10s4.486-10 10-10 10 4.486 10 10-4.486 10-10 10zM366.5 85.165c-16.542 0-30 13.458-30 30s13.458 30 30 30 30-13.458 30-30-13.458-30-30-30zm0 40c-5.514 0-10-4.486-10-10s4.486-10 10-10 10 4.486 10 10-4.486 10-10 10zM145.5 85.165c-16.542 0-30 13.458-30 30s13.458 30 30 30 30-13.458 30-30-13.458-30-30-30zm0 40c-5.514 0-10-4.486-10-10s4.486-10 10-10 10 4.486 10 10-4.486 10-10 10z"/>
  <circle cx="456" cy="419.84" r="10"/>
  <circle cx="456" cy="459.84" r="10"/>
</svg>
