<svg xmlns="http://www.w3.org/2000/svg" viewBox="0 0 512 512">
  <path d="M486.4 0H25.6C11.468.015.015 11.468 0 25.6v460.8c.015 14.132 11.468 25.585 25.6 25.6h460.8c14.132-.015 25.585-11.468 25.6-25.6V25.6C511.985 11.468 500.532.015 486.4 0zm8.533 486.4a8.544 8.544 0 01-8.533 8.533H25.6a8.544 8.544 0 01-8.533-8.533V25.6a8.544 8.544 0 018.533-8.533h460.8a8.544 8.544 0 018.533 8.533v460.8z"/>
  <path d="M469.333 34.133H42.667a8.533 8.533 0 00-8.533 8.533v426.667a8.533 8.533 0 008.533 8.533h426.667a8.533 8.533 0 008.533-8.533V42.667a8.534 8.534 0 00-8.534-8.534zM298.667 51.2h93.867v17.067h-93.867V51.2zm42.666 273.067H256v-34.133h85.333v34.133zm51.2 17.066v34.133h-76.638a358.23 358.23 0 01-57.486-34.133h134.124zm-201.387-68.266a8.498 8.498 0 00-3.339.683 356.811 356.811 0 01-24.22-34.816H281.6v34.133h-90.454zm47.787 17.066v36.145a359.985 359.985 0 01-37.198-36.145h37.198zm-68.266-153.6v34.133h-39.556a344.402 344.402 0 01-10.032-34.133h49.588zm-53.125-17.066c-2.141-11.366-3.932-22.774-5.006-34.133h23.998v34.133h-18.992zm121.391 0H153.6V85.333h85.333v34.134zm42.667 17.066v34.133h-93.867v-34.133H281.6zm-42.667 51.2v34.133h-84.821c-.129 0-.235.067-.362.073a354.645 354.645 0 01-16.141-34.206h101.324zm59.734 85.334v-34.133h93.867v34.133h-93.867zm42.666-51.2H256v-34.133h85.333v34.133zm-42.666-51.2v-34.133h93.867v34.133h-93.867zm42.666-51.2H256V85.333h85.333v34.134zM187.733 51.2H281.6v17.067h-93.867V51.2zm-17.066 0v17.067h-59.336a373.057 373.057 0 01-.397-17.067h59.733zM460.8 460.8H51.2V51.2h42.667c0 11.696.529 23.442 1.575 34.921a397.007 397.007 0 008.454 52.413c.092.396.214.784.362 1.162a363.795 363.795 0 0016.237 51.358 376.568 376.568 0 0025.858 52.504 368.691 368.691 0 0037.796 52.546 378.527 378.527 0 0055.117 52.5 373.906 373.906 0 00221.533 77.867V460.8zm0-51.395a359.793 359.793 0 01-101.398-16.872H460.8v16.872zm0-33.938h-51.2v-34.133h51.2v34.133zm0-51.2H358.4v-34.133h102.4v34.133zm0-51.2h-51.2v-34.133h51.2v34.133zm0-51.2H358.4v-34.133h102.4v34.133zm0-51.2h-51.2v-34.133h51.2v34.133zm0-51.2H358.4V85.333h102.4v34.134zm0-51.2h-51.2V51.2h51.2v17.067z"/>
</svg>
