<svg xmlns="http://www.w3.org/2000/svg" viewBox="0 0 512 512">
  <path d="M497 348.29V332h7.5c4.143 0 7.5-3.357 7.5-7.5s-3.357-7.5-7.5-7.5H497v-2.5c0-4.143-3.357-7.5-7.5-7.5s-7.5 3.357-7.5 7.5v2.5h-7.5c-4.143 0-7.5 3.357-7.5 7.5s3.357 7.5 7.5 7.5h7.5v16.29c-8.729 3.096-15 11.433-15 21.21v7.5h-15v-22.5c0-4.143-3.357-7.5-7.5-7.5H422V45h2.5c4.143 0 7.5-3.357 7.5-7.5s-3.357-7.5-7.5-7.5H422V7.5c0-4.143-3.357-7.5-7.5-7.5h-317A7.499 7.499 0 0090 7.5V30h-2.5c-4.143 0-7.5 3.357-7.5 7.5s3.357 7.5 7.5 7.5H90v302H67.5a7.499 7.499 0 00-7.5 7.5V377H45v-7.5c0-12.406-10.094-22.5-22.5-22.5S0 357.094 0 369.5v75c0 4.143 3.357 7.5 7.5 7.5H15v52.5c0 4.143 3.357 7.5 7.5 7.5s7.5-3.357 7.5-7.5V452h7.5c4.143 0 7.5-3.357 7.5-7.5V392h15v22.5c0 4.143 3.357 7.5 7.5 7.5H90v22.5c0 4.143 3.357 7.5 7.5 7.5h317c4.143 0 7.5-3.357 7.5-7.5V422h22.5c4.143 0 7.5-3.357 7.5-7.5V392h15v52.5c0 4.143 3.357 7.5 7.5 7.5h7.5v52.5c0 4.143 3.357 7.5 7.5 7.5s7.5-3.357 7.5-7.5V452h7.5c4.143 0 7.5-3.357 7.5-7.5v-75c0-9.777-6.271-18.114-15-21.21zM30 437H15v-67.5c0-4.136 3.364-7.5 7.5-7.5s7.5 3.364 7.5 7.5V437zm60-30H75v-45h15v45zm158.5 30h-64.25V97.5c0-4.143-3.357-7.5-7.5-7.5s-7.5 3.357-7.5 7.5V437H105V15h64.25v52.5c0 4.143 3.357 7.5 7.5 7.5s7.5-3.357 7.5-7.5V15h64.25v422zm79.25 0H263.5V15h64.25v422zm79.25 0h-64.25V15H407v422zm30-30h-15v-45h15v45zm60 30h-15v-67.5c0-4.136 3.364-7.5 7.5-7.5s7.5 3.364 7.5 7.5V437z"/>
</svg>
