<svg xmlns="http://www.w3.org/2000/svg" viewBox="0 0 512 512">
  <path d="M471.149 32.681H272.34a8.169 8.169 0 00-8.17 8.17v364.935a8.169 8.169 0 008.17 8.17 8.169 8.169 0 008.17-8.17v-92.153c12.235-5.23 22.444-14.275 29.203-25.505 10.969 18.509 31.07 30.51 53.861 30.51 22.742 0 42.802-11.946 53.787-30.384 9.648 16.194 26.299 27.378 45.617 29.859v144.865H280.511v-24.511a8.169 8.169 0 00-8.17-8.17 8.169 8.169 0 00-8.17 8.17v32.681a8.169 8.169 0 008.17 8.17h198.808a8.169 8.169 0 008.17-8.17V40.851a8.169 8.169 0 00-8.17-8.17zm-8.17 268.904c-19.183-3.37-34.402-18.429-37.548-38.27a8.169 8.169 0 00-16.138 0c-3.581 22.588-22.809 38.983-45.718 38.983-22.909 0-42.138-16.395-45.718-38.983a8.169 8.169 0 00-16.138-.001c-2.102 13.262-10.049 24.89-21.208 31.911V49.021h182.468v252.564z"/>
  <path d="M503.83 0H8.17A8.17 8.17 0 000 8.17v495.66A8.17 8.17 0 008.17 512h495.66a8.169 8.169 0 008.17-8.17V8.17A8.169 8.169 0 00503.83 0zm-8.17 495.66H16.34V16.34h479.32v479.32z"/>
  <path d="M239.66 32.681H40.851a8.17 8.17 0 00-8.17 8.17v430.298a8.17 8.17 0 008.17 8.17H239.66a8.17 8.17 0 008.17-8.17V308.024 40.851a8.17 8.17 0 00-8.17-8.17zm-8.171 430.298H49.021V318.114c19.318-2.482 35.969-13.665 45.617-29.859 10.985 18.439 31.046 30.384 53.787 30.384 22.793 0 42.893-12 53.861-30.51 6.758 11.23 16.968 20.274 29.203 25.505v149.345zm0-167.754c-11.158-7.021-19.105-18.65-21.207-31.91a8.17 8.17 0 00-16.14 0c-3.581 22.588-22.807 38.983-45.717 38.983s-42.136-16.395-45.717-38.983a8.17 8.17 0 00-16.14 0c-3.145 19.842-18.365 34.9-37.547 38.27V49.021h182.468v246.204z"/>
</svg>
