<svg xmlns="http://www.w3.org/2000/svg" viewBox="0 0 512 512">
  <path d="M496 121h-75V90c0-49.626-40.374-90-90-90s-90 40.374-90 90v31h-75c-8.284 0-15 6.716-15 15v105H16c-8.284 0-15 6.716-15 15v241c0 8.284 6.716 15 15 15h480c8.284 0 15-6.716 15-15V136c0-8.284-6.716-15-15-15zM271 90c0-33.084 26.916-60 60-60s60 26.916 60 60v31H271zM31 271h240v211H31zm450 211H301V256c0-8.284-6.716-15-15-15H181v-90h60v45c0 8.284 6.716 15 15 15s15-6.716 15-15v-45h120v45c0 8.284 6.716 15 15 15s15-6.716 15-15v-45h60z"/>
  <path d="M211 301c-8.284 0-15 6.716-15 15 0 24.813-20.187 45-45 45s-45-20.187-45-45c0-8.284-6.716-15-15-15s-15 6.716-15 15c0 41.355 33.645 75 75 75s75-33.645 75-75c0-8.284-6.716-15-15-15z"/>
</svg>
